<?xml version="1.0" standalone="no"?>
<!DOCTYPE svg PUBLIC "-//W3C//DTD SVG 20010904//EN"
 "http://www.w3.org/TR/2001/REC-SVG-20010904/DTD/svg10.dtd">
<svg version="1.0" xmlns="http://www.w3.org/2000/svg"
 width="500.000000pt" height="500.000000pt" viewBox="0 0 500.000000 500.000000"
 preserveAspectRatio="xMidYMid meet">
<metadata>
Created by potrace 1.14, written by Peter Selinger 2001-2017
</metadata>
<g transform="translate(0.000000,500.000000) scale(0.100000,-0.100000)"
fill="#000000" stroke="none">
<path d="M0 2500 l0 -2500 2500 0 2500 0 0 2500 0 2500 -2500 0 -2500 0 0
-2500z m3212 1663 l698 -698 -107 -107 c-59 -60 -112 -108 -118 -108 -5 0
-272 262 -592 582 l-583 583 -420 -420 c-231 -231 -420 -423 -420 -428 0 -4
56 -65 125 -135 l124 -127 253 253 c139 138 258 252 263 252 6 0 429 -418 940
-930 l930 -930 -113 -112 -112 -113 -823 823 -822 822 -144 -144 -144 -144
824 -820 824 -821 -645 -645 c-355 -355 -650 -646 -655 -646 -6 0 -323 313
-705 695 l-695 695 110 110 110 110 587 -587 588 -588 425 425 425 425 -132
132 -133 133 -255 -255 -255 -255 -933 933 -932 932 110 110 110 110 263 -260
c144 -143 515 -512 824 -820 l563 -560 142 143 143 142 -823 823 -822 822 647
648 c357 356 650 647 653 647 3 0 319 -314 702 -697z"/>
</g>
</svg>
